<?xml version="1.0" standalone="no"?>
<!DOCTYPE svg PUBLIC "-//W3C//DTD SVG 20010904//EN"
 "http://www.w3.org/TR/2001/REC-SVG-20010904/DTD/svg10.dtd">
<svg version="1.0" xmlns="http://www.w3.org/2000/svg"
 width="1084.000000pt" height="693.000000pt" viewBox="0 0 884.000000 393.000000"
 preserveAspectRatio="xMidYMid meet">

<g transform="translate(0.000000,393.000000) scale(0.100000,-0.100000)"
fill="#000000" stroke="none">
<path d="M4970 3595 c-17 -20 -5 -45 20 -45 11 0 23 7 26 15 6 15 -11 45 -26
45 -4 0 -13 -7 -20 -15z"/>
<path d="M5084 3595 c-18 -13 -18 -15 -1 -32 13 -13 21 -15 34 -7 25 16 27 31
5 43 -14 7 -24 6 -38 -4z"/>
<path d="M4854 3565 c-4 -9 -2 -21 4 -27 16 -16 47 -5 47 17 0 26 -42 34 -51
10z"/>
<path d="M5186 3554 c-4 -10 -1 -24 7 -31 19 -19 49 -5 45 21 -4 27 -43 34
-52 10z"/>
<path d="M4255 3536 c-331 -49 -646 -206 -880 -441 -65 -64 -160 -180 -190
-232 -10 -17 -29 -36 -41 -42 -14 -6 -21 -16 -18 -24 3 -8 -13 -50 -35 -93
-42 -83 -121 -284 -121 -309 0 -8 -9 -19 -20 -25 -21 -11 -26 -39 -11 -55 5
-6 3 -48 -6 -105 -11 -71 -13 -143 -9 -283 3 -103 1 -185 -3 -183 -16 10 -42
-19 -35 -38 5 -13 14 -17 34 -13 26 6 28 3 40 -51 54 -244 212 -535 386 -712
30 -31 54 -59 54 -64 0 -4 -7 -14 -15 -22 -8 -8 -12 -21 -9 -29 8 -20 44 -19
59 1 10 15 20 10 86 -43 157 -127 339 -219 539 -274 41 -11 84 -24 95 -29 25
-10 248 -30 340 -30 137 1 323 33 472 81 46 15 67 18 81 10 15 -8 23 -6 36 8
9 9 16 22 16 27 0 5 25 20 55 33 75 32 225 128 315 200 41 34 81 59 88 56 25
-9 53 14 46 39 -4 17 5 34 38 72 107 121 162 203 232 342 72 144 131 335 151
489 6 46 9 51 22 38 18 -19 27 -19 43 0 16 20 -6 48 -32 42 -17 -5 -18 3 -18
101 0 59 -8 157 -16 217 -9 61 -17 133 -18 162 -1 36 -6 56 -18 65 -9 7 -22
33 -28 58 -34 127 -224 471 -252 454 -6 -4 -8 -2 -4 4 12 19 -182 227 -264
284 -23 16 -24 18 -7 31 21 17 22 43 2 51 -22 8 -43 -3 -47 -25 -3 -17 -9 -15
-63 22 -121 81 -302 162 -440 195 -38 9 -75 22 -81 30 -6 7 -31 13 -60 12 -27
0 -128 2 -224 6 -121 3 -203 1 -265 -8z m385 -60 c0 -21 28 -46 45 -40 8 3 17
14 20 24 5 17 9 17 89 0 247 -54 503 -184 670 -341 35 -32 66 -56 70 -54 3 3
4 2 1 -1 -2 -4 26 -39 63 -79 164 -176 289 -429 349 -705 22 -103 27 -460 6
-481 -7 -7 -10 -24 -7 -38 11 -55 -51 -267 -122 -418 -66 -139 -223 -359 -238
-334 -11 17 -43 13 -50 -5 -4 -9 -1 -23 6 -31 30 -37 -262 -259 -447 -340
-192 -85 -347 -121 -567 -130 -221 -9 -404 22 -603 102 -116 47 -155 68 -265
141 -208 137 -381 323 -491 526 -69 128 -154 354 -138 364 14 8 10 41 -5 47
-38 15 -53 406 -22 572 70 370 259 687 549 918 173 139 407 248 622 290 115
23 124 24 303 26 134 1 162 -1 162 -13z"/>
<path d="M4505 3424 c-22 -2 -78 -7 -125 -10 -81 -6 -84 -7 -65 -23 11 -10 36
-34 55 -55 32 -34 33 -38 18 -47 -10 -6 -18 -18 -18 -28 0 -27 29 -35 52 -15
20 19 28 15 109 -71 20 -22 40 -37 44 -34 5 5 17 120 28 259 2 27 -13 31 -98
24z"/>
<path d="M3675 3216 c-16 -12 -17 -16 -6 -30 26 -31 69 -9 50 26 -12 22 -19
22 -44 4z"/>
<path d="M4294 3195 c-8 -20 4 -35 26 -35 23 0 32 13 24 34 -8 20 -43 21 -50
1z"/>
<path d="M3777 3173 c-13 -12 -7 -41 10 -47 9 -4 23 0 31 8 13 12 13 18 2 30
-13 17 -32 21 -43 9z"/>
<path d="M3882 3121 c-21 -13 -10 -46 16 -49 27 -4 40 22 22 43 -14 17 -20 18
-38 6z"/>
<path d="M4213 3114 c-3 -8 1 -23 10 -31 13 -13 19 -14 31 -3 20 16 20 36 0
44 -25 9 -34 7 -41 -10z"/>
<path d="M3970 3050 c-8 -16 -6 -21 11 -31 17 -9 25 -8 38 6 15 15 15 17 -3
31 -26 19 -33 18 -46 -6z"/>
<path d="M4140 3035 c-10 -12 -10 -18 0 -30 16 -19 34 -19 51 1 11 14 10 18
-6 30 -24 18 -30 18 -45 -1z"/>
<path d="M4069 2998 c0 -2 -2 -20 -4 -40 -3 -45 14 -64 43 -49 28 15 16 85
-16 89 -12 2 -22 2 -23 0z"/>
<path d="M4160 2925 c-10 -12 -10 -18 0 -30 16 -19 34 -19 49 -1 9 11 8 18 -4
30 -20 20 -29 20 -45 1z"/>
<path d="M4001 2852 c-19 -35 24 -57 50 -26 11 14 10 18 -6 30 -25 18 -32 18
-44 -4z"/>
<path d="M4250 2855 c-10 -12 -10 -18 0 -30 16 -19 34 -19 49 -1 9 11 8 18 -4
30 -20 20 -29 20 -45 1z"/>
<path d="M4334 2775 c-4 -9 -2 -21 4 -27 16 -16 47 -5 47 17 0 26 -42 34 -51
10z"/>
<path d="M3934 2755 c-4 -9 -2 -21 4 -27 16 -16 47 -5 47 17 0 26 -42 34 -51
10z"/>
<path d="M4424 2705 c-9 -23 3 -45 25 -45 27 0 36 31 15 47 -23 17 -33 16 -40
-2z"/>
<path d="M3874 2665 c-16 -41 27 -60 50 -22 8 14 8 20 -4 27 -22 14 -40 12
-46 -5z"/>
<path d="M4513 2633 c-18 -7 -16 -40 2 -47 25 -9 46 5 43 28 -3 21 -22 29 -45
19z"/>
<path d="M3813 2564 c-3 -8 2 -23 11 -32 15 -15 17 -15 32 0 21 21 11 48 -16
48 -11 0 -23 -7 -27 -16z"/>
<path d="M4592 2548 c-16 -16 -15 -35 3 -42 25 -9 46 5 43 28 -3 24 -28 32
-46 14z"/>
<path d="M3754 2465 c-4 -9 -2 -21 4 -27 16 -16 47 -5 47 17 0 26 -42 34 -51
10z"/>
<path d="M4670 2465 c-25 -30 5 -57 40 -35 11 7 12 14 4 27 -15 23 -29 26 -44
8z"/>
<path d="M4741 2377 c-9 -12 -8 -18 4 -31 20 -20 58 -4 53 22 -4 22 -41 27
-57 9z"/>
<path d="M3703 2368 c-8 -13 -79 -49 -273 -141 l-105 -49 70 -32 c39 -18 91
-41 117 -52 36 -14 48 -24 48 -40 0 -12 6 -27 14 -33 12 -10 19 -8 33 6 24 24
21 24 201 -58 74 -34 87 -36 77 -11 -5 13 -91 284 -130 410 -3 6 -13 12 -24
12 -11 0 -24 -6 -28 -12z"/>
<path d="M4820 2295 c-18 -21 -5 -47 22 -43 26 3 37 36 16 49 -18 12 -24 11
-38 -6z"/>
<path d="M4892 2208 c-7 -7 -8 -17 -1 -30 12 -22 32 -23 49 -3 23 28 -21 60
-48 33z"/>
<path d="M4965 2116 c-16 -12 -17 -16 -6 -30 26 -31 69 -9 50 26 -12 22 -19
22 -44 4z"/>
<path d="M5035 2026 c-16 -12 -17 -16 -6 -30 26 -31 69 -9 50 26 -12 22 -19
22 -44 4z"/>
<path d="M3532 1961 c-21 -13 -10 -46 16 -49 27 -4 40 22 22 43 -14 17 -20 18
-38 6z"/>
<path d="M5094 1925 c-4 -9 -2 -21 4 -27 16 -16 47 -5 47 17 0 26 -42 34 -51
10z"/>
<path d="M3490 1845 c-11 -13 -11 -19 3 -32 21 -21 49 -9 45 19 -4 28 -30 35
-48 13z"/>
<path d="M5160 1835 c-10 -12 -10 -18 0 -30 17 -20 37 -19 49 3 18 34 -24 57
-49 27z"/>
<path d="M5464 1813 c3 -10 33 -108 67 -218 34 -110 62 -201 63 -202 1 -1 38
56 81 127 62 100 85 129 101 130 22 0 39 24 28 41 -3 5 -15 9 -28 9 -12 0 -86
29 -164 65 -79 36 -145 65 -148 65 -3 0 -3 -8 0 -17z"/>
<path d="M3453 1734 c-3 -8 1 -23 10 -31 13 -13 19 -14 31 -3 20 16 20 36 0
44 -25 9 -34 7 -41 -10z"/>
<path d="M5222 1738 c-12 -12 1 -48 18 -48 16 0 39 31 34 45 -7 18 -35 20 -52
3z"/>
<path d="M5854 1735 c-4 -9 -2 -21 4 -27 15 -15 54 1 50 20 -4 23 -46 28 -54
7z"/>
<path d="M4184 1578 c4 -62 9 -140 12 -173 2 -33 8 -118 14 -189 5 -70 11
-130 13 -132 2 -2 72 68 156 156 84 88 160 160 170 160 9 0 25 6 35 13 17 12
17 14 1 27 -13 11 -21 11 -36 2 -17 -11 -27 -7 -77 30 -31 24 -59 45 -62 48
-3 3 -32 25 -65 50 -33 25 -81 62 -106 82 -25 21 -49 38 -53 38 -5 0 -6 -51
-2 -112z"/>
<path d="M5274 1635 c-8 -19 3 -35 25 -35 23 0 41 19 34 36 -7 18 -52 18 -59
-1z"/>
<path d="M3090 1630 c-11 -7 -12 -14 -4 -27 15 -24 29 -26 48 -7 29 28 -8 57
-44 34z"/>
<path d="M3423 1624 c-8 -21 19 -46 40 -38 21 8 22 40 1 48 -25 9 -34 7 -41
-10z"/>
<path d="M3197 1593 c-13 -12 -7 -41 10 -47 21 -8 48 17 40 38 -6 16 -38 22
-50 9z"/>
<path d="M5434 1575 c-8 -21 2 -45 19 -45 8 0 20 7 27 15 10 12 10 18 0 30 -7
8 -19 15 -27 15 -7 0 -16 -7 -19 -15z"/>
<path d="M3312 1561 c-18 -11 -12 -45 8 -48 27 -5 46 14 34 34 -13 21 -25 25
-42 14z"/>
<path d="M5324 1545 c-10 -25 4 -45 31 -45 33 0 45 28 20 46 -25 18 -44 18
-51 -1z"/>
<path d="M3406 1522 c-15 -18 -15 -20 4 -37 20 -18 21 -18 42 3 18 17 19 23 8
36 -17 21 -33 20 -54 -2z"/>
<path d="M5212 1518 c-15 -15 2 -38 28 -38 19 0 34 25 24 41 -7 13 -38 11 -52
-3z"/>
<path d="M3522 1497 c-10 -11 -9 -17 2 -26 21 -18 51 -9 51 14 0 24 -36 32
-53 12z"/>
<path d="M5097 1496 c-3 -8 3 -22 12 -31 17 -15 20 -15 35 0 20 21 20 31 0 39
-25 10 -41 7 -47 -8z"/>
<path d="M3634 1475 c-4 -9 -2 -21 4 -27 16 -16 47 -5 47 17 0 26 -42 34 -51
10z"/>
<path d="M4988 1478 c-8 -22 3 -38 27 -38 24 0 35 16 28 38 -3 6 -15 12 -28
12 -12 0 -25 -6 -27 -12z"/>
<path d="M3751 1466 c-15 -18 -3 -46 20 -46 25 0 35 26 19 45 -15 19 -24 19
-39 1z"/>
<path d="M4883 1473 c-18 -7 -16 -28 3 -43 12 -11 18 -10 31 3 28 27 4 56 -34
40z"/>
<path d="M4770 1450 c-13 -25 -5 -40 21 -40 25 0 35 25 19 45 -17 20 -27 19
-40 -5z"/>
<path d="M3856 1451 c-10 -15 5 -41 23 -41 23 0 41 19 34 36 -6 16 -49 19 -57
5z"/>
<path d="M4654 1445 c-18 -13 -18 -15 -1 -32 13 -13 21 -15 34 -7 25 16 27 31
5 43 -14 7 -24 6 -38 -4z"/>
<path d="M3967 1436 c-7 -17 11 -36 34 -36 18 0 33 26 23 41 -8 14 -51 11 -57
-5z"/>
<path d="M4087 1443 c-12 -12 -7 -41 8 -47 22 -8 45 4 45 24 0 23 -37 39 -53
23z"/>
<path d="M5383 1434 c-3 -8 2 -23 11 -32 15 -15 17 -15 32 0 21 21 11 48 -16
48 -11 0 -23 -7 -27 -16z"/>
<path d="M3380 1405 c-10 -12 -10 -18 0 -30 15 -19 21 -19 45 -1 16 12 17 16
6 30 -17 20 -35 20 -51 1z"/>
<path d="M5430 1335 c-10 -12 -10 -18 0 -30 16 -19 34 -19 49 -1 9 11 8 18 -4
30 -20 20 -29 20 -45 1z"/>
<path d="M3370 1295 c-17 -20 -5 -45 20 -45 11 0 23 7 26 15 6 15 -11 45 -26
45 -4 0 -13 -7 -20 -15z"/>
<path d="M5471 1226 c-9 -11 -8 -18 4 -30 20 -20 29 -20 45 -1 10 12 10 18 0
30 -16 19 -34 19 -49 1z"/>
<path d="M3354 1175 c-4 -9 -2 -21 4 -27 16 -16 47 -5 47 17 0 26 -42 34 -51
10z"/>
<path d="M5509 1114 c-11 -14 -10 -18 6 -30 16 -12 21 -12 37 3 14 12 15 19 7
30 -15 18 -34 17 -50 -3z"/>
<path d="M3356 1063 c-9 -21 16 -46 37 -37 21 8 22 40 1 48 -24 9 -31 7 -38
-11z"/>
<path d="M5277 3494 c-10 -11 -9 -42 3 -49 20 -12 51 6 48 28 -3 22 -36 35
-51 21z"/>
<path d="M5342 3398 c-7 -7 -8 -17 -1 -30 12 -22 32 -23 49 -3 23 28 -21 60
-48 33z"/>
<path d="M3343 3283 c-15 -6 -17 -39 -3 -48 15 -10 50 5 50 20 0 17 -30 34
-47 28z"/>
<path d="M3451 3276 c-15 -18 -3 -46 20 -46 25 0 35 26 19 45 -15 19 -24 19
-39 1z"/>
<path d="M3224 3236 c-9 -23 13 -45 37 -39 14 4 19 12 17 27 -4 26 -45 35 -54
12z"/>
<path d="M3150 3155 c-10 -12 -10 -18 0 -30 7 -8 18 -15 25 -15 7 0 18 7 25
15 10 12 10 18 0 30 -7 8 -18 15 -25 15 -7 0 -18 -7 -25 -15z"/>
<path d="M3135 3047 c-10 -8 -14 -19 -9 -30 9 -25 48 -18 52 9 4 26 -20 37
-43 21z"/>
<path d="M3127 2933 c-12 -11 -7 -41 7 -46 21 -8 48 16 40 36 -6 17 -35 23
-47 10z"/>
<path d="M6044 2335 c-4 -9 -2 -21 4 -27 16 -16 47 -5 47 17 0 26 -42 34 -51
10z"/>
<path d="M2840 2285 c-10 -12 -10 -18 0 -30 17 -20 37 -19 48 3 19 37 -21 60
-48 27z"/>
<path d="M6124 2255 c-4 -9 -2 -21 4 -27 16 -16 47 -5 47 17 0 26 -42 34 -51
10z"/>
<path d="M2762 2208 c-7 -7 -8 -17 -1 -30 12 -22 32 -23 49 -3 23 28 -21 60
-48 33z"/>
<path d="M6174 2155 c-4 -9 -2 -21 4 -27 16 -16 47 -5 47 17 0 26 -42 34 -51
10z"/>
<path d="M2704 2106 c-9 -23 13 -45 37 -39 14 4 19 12 17 27 -4 26 -45 35 -54
12z"/>
<path d="M6166 2043 c-8 -20 19 -44 40 -36 8 3 14 16 14 29 0 19 -5 24 -24 24
-13 0 -27 -8 -30 -17z"/>
<path d="M2697 2003 c-14 -13 -6 -41 13 -46 23 -6 43 14 34 37 -6 16 -35 22
-47 9z"/>
<path d="M6116 1943 c-8 -20 19 -44 40 -36 8 3 14 16 14 29 0 19 -5 24 -24 24
-13 0 -27 -8 -30 -17z"/>
<path d="M2726 1891 c-11 -17 6 -41 29 -41 24 0 35 16 28 38 -5 14 -49 16 -57
3z"/>
<path d="M2804 1805 c-18 -13 -18 -15 -1 -32 13 -13 21 -15 34 -7 25 16 27 31
5 43 -14 7 -24 6 -38 -4z"/>
<path d="M5552 768 c4 -31 53 -34 53 -3 0 15 -8 21 -28 23 -25 3 -28 0 -25
-20z"/>
<path d="M3415 734 c-15 -15 -15 -18 -1 -33 12 -12 21 -13 33 -5 25 16 27 31
4 43 -15 9 -23 7 -36 -5z"/>
<path d="M5529 664 c-11 -14 -10 -18 5 -30 13 -9 24 -10 37 -3 22 11 24 20 7
37 -16 16 -33 15 -49 -4z"/>
<path d="M3454 626 c-9 -22 4 -36 32 -36 21 0 25 4 22 23 -4 26 -45 37 -54 13z"/>
<path d="M5475 574 c-12 -12 -13 -19 -4 -30 15 -19 45 -18 53 2 8 22 8 22 -13
34 -15 7 -23 6 -36 -6z"/>
<path d="M3532 541 c-20 -12 -10 -46 12 -46 27 0 46 33 26 45 -18 12 -21 12
-38 1z"/>
<path d="M5150 535 c-10 -12 -10 -18 0 -30 7 -8 18 -15 25 -15 7 0 18 7 25 15
10 12 10 18 0 30 -7 8 -18 15 -25 15 -7 0 -18 -7 -25 -15z"/>
<path d="M5260 515 c-10 -12 -10 -18 0 -30 7 -8 18 -15 25 -15 7 0 18 7 25 15
10 12 10 18 0 30 -7 8 -18 15 -25 15 -7 0 -18 -7 -25 -15z"/>
<path d="M5377 523 c-13 -12 -7 -41 10 -47 9 -4 23 0 31 8 13 12 13 18 2 30
-13 17 -32 21 -43 9z"/>
<path d="M3610 460 c-8 -16 -6 -21 11 -31 17 -9 25 -8 37 5 13 12 13 18 2 30
-17 22 -37 20 -50 -4z"/>
<path d="M4053 463 c-20 -8 -15 -31 9 -44 18 -10 24 -8 35 6 21 29 -7 53 -44
38z"/>
<path d="M3723 433 c-21 -8 -15 -41 8 -48 28 -9 47 10 33 32 -12 19 -23 24
-41 16z"/>
<path d="M3940 425 c-10 -12 -10 -18 0 -30 16 -19 34 -19 51 1 11 14 10 18 -6
30 -24 18 -30 18 -45 -1z"/>
<path d="M3825 420 c-10 -17 20 -44 40 -36 9 3 15 14 13 23 -4 21 -43 30 -53
13z"/>
</g>
</svg>
